<?xml version="1.0" standalone="no"?>
<!DOCTYPE svg PUBLIC "-//W3C//DTD SVG 20010904//EN"
 "http://www.w3.org/TR/2001/REC-SVG-20010904/DTD/svg10.dtd">
<svg version="1.0" xmlns="http://www.w3.org/2000/svg"
 width="1891.000000pt" height="747.000000pt" viewBox="0 0 1891.000000 747.000000"
 preserveAspectRatio="xMidYMid meet">

<g transform="translate(0.000000,747.000000) scale(0.100000,-0.100000)"
fill="#000000" stroke="none">
<path d="M8346 6899 c-69 -16 -179 -76 -237 -128 -63 -56 -119 -153 -144 -247
-67 -257 103 -528 375 -599 344 -89 685 254 595 599 -25 94 -81 191 -144 247
-60 54 -168 112 -241 128 -54 13 -150 12 -204 0z"/>
<path d="M16755 6328 c-22 -18 -46 -39 -53 -48 -26 -30 -52 -96 -52 -134 0
-41 19 -116 30 -116 3 0 19 14 36 31 16 17 44 39 62 51 l32 20 0 114 c0 63 -3
114 -8 114 -4 0 -25 -15 -47 -32z"/>
<path d="M2270 5670 c-11 -11 -20 -27 -20 -35 0 -23 37 -55 63 -55 49 0 74 61
39 93 -25 23 -58 21 -82 -3z"/>
<path d="M2904 5644 c3 -26 6 -55 6 -65 0 -14 7 -19 29 -19 34 0 41 14 41 81
l0 49 -41 0 -42 0 7 -46z"/>
<path d="M1820 5420 l0 -210 50 0 49 0 3 88 3 87 80 0 80 0 3 -87 3 -88 44 0
45 0 0 210 0 210 -45 0 -44 0 -3 -82 -3 -83 -80 0 -80 0 -3 83 -3 82 -49 0
-50 0 0 -210z"/>
<path d="M2740 5420 l0 -210 50 0 50 0 0 210 0 210 -50 0 -50 0 0 -210z"/>
<path d="M3187 5531 c-29 -15 -37 -16 -37 -5 0 10 -14 14 -50 14 l-50 0 0
-165 0 -165 50 0 50 0 0 108 c0 93 3 111 18 125 25 23 68 21 92 -3 17 -17 20
-33 20 -125 l0 -105 50 0 50 0 0 108 c0 93 3 111 18 125 25 23 68 21 92 -3 17
-17 20 -33 20 -125 l0 -105 50 0 50 0 0 112 c0 140 -18 187 -82 213 -52 20
-96 13 -138 -22 l-31 -26 -22 21 c-24 23 -68 42 -96 42 -9 0 -33 -9 -54 -19z"/>
<path d="M2260 5375 l0 -165 50 0 50 0 0 165 0 165 -50 0 -50 0 0 -165z"/>
<path d="M17329 5447 c-4 -7 -3 -1817 1 -1817 3 1 30 7 60 14 l55 13 5 565 c3
312 8 569 11 573 11 10 36 -54 90 -230 71 -232 71 -257 -5 -598 -32 -142 -57
-260 -55 -261 18 -14 151 -87 155 -84 7 7 118 313 179 491 73 215 77 258 37
369 -39 107 -137 426 -197 638 -49 173 -72 216 -129 251 -26 16 -204 81 -207
76z"/>
<path d="M2442 5253 c-27 -128 -28 -123 6 -123 29 0 32 4 61 81 17 44 31 83
31 85 0 2 -20 4 -44 4 l-44 0 -10 -47z"/>
<path d="M2290 4530 l0 -220 50 0 50 0 0 220 0 220 -50 0 -50 0 0 -220z"/>
<path d="M1270 4725 c0 -3 23 -98 51 -210 l51 -205 62 0 62 0 33 136 c19 76
37 131 41 123 3 -8 19 -69 35 -136 l29 -123 61 0 61 0 52 203 c29 111 52 206
52 210 0 4 -23 7 -52 5 l-52 -3 -30 -150 c-16 -82 -32 -143 -35 -135 -2 8 -19
76 -36 150 l-32 135 -55 3 -55 3 -38 -153 c-21 -84 -40 -148 -42 -143 -1 6
-15 73 -31 150 l-28 140 -52 3 c-29 2 -52 0 -52 -3z"/>
<path d="M5100 4520 l0 -210 50 0 49 0 3 121 3 121 45 -121 44 -121 41 0 40 0
45 123 45 122 3 -122 3 -123 49 0 50 0 0 210 0 210 -58 0 -58 0 -54 -132 c-29
-73 -56 -139 -60 -147 -4 -8 -30 44 -65 133 l-59 146 -58 0 -58 0 0 -210z"/>
<path d="M4360 4680 c0 -33 -3 -40 -20 -40 -17 0 -20 -7 -20 -40 0 -33 3 -40
20 -40 18 0 20 -7 20 -85 0 -129 29 -165 131 -165 l39 0 0 45 c0 45 0 45 -35
45 l-35 0 0 80 0 80 35 0 c34 0 35 1 35 40 0 39 -1 40 -35 40 -34 0 -35 1 -35
40 l0 40 -50 0 -50 0 0 -40z"/>
<path d="M2006 4640 c-127 -40 -144 -249 -26 -311 48 -26 133 -25 175 1 33 20
65 60 65 80 0 16 -99 12 -116 -5 -21 -21 -67 -19 -87 3 -34 37 -22 42 98 42
l115 0 0 44 c0 47 -27 96 -72 129 -30 22 -108 31 -152 17z m104 -90 c33 -33
24 -40 -45 -40 -37 0 -65 4 -65 10 0 19 40 50 65 50 14 0 34 -9 45 -20z"/>
<path d="M2534 4630 c-56 -28 -84 -81 -84 -156 0 -69 22 -113 72 -145 27 -16
46 -19 102 -17 65 4 70 5 107 46 54 57 52 72 -11 72 -37 0 -55 -5 -70 -20 -27
-27 -55 -25 -79 6 -25 32 -28 90 -5 122 19 28 65 29 89 2 21 -23 115 -30 115
-7 0 20 -38 75 -64 92 -41 27 -124 30 -172 5z"/>
<path d="M2900 4628 c-63 -33 -83 -66 -87 -141 -6 -110 56 -177 165 -177 107
0 172 65 172 172 0 40 -6 64 -23 89 -27 41 -98 79 -147 79 -20 0 -56 -10 -80
-22z m130 -90 c43 -47 10 -148 -50 -148 -33 0 -70 44 -70 83 0 74 74 114 120
65z"/>
<path d="M3355 4630 c-47 -24 -45 -24 -45 -5 0 11 -12 15 -50 15 l-50 0 0
-165 0 -165 50 0 50 0 0 105 c0 118 13 145 68 145 52 0 62 -24 62 -143 l0
-107 50 0 50 0 0 105 c0 118 13 145 68 145 52 0 62 -24 62 -143 l0 -107 50 0
50 0 0 123 c0 105 -3 127 -20 155 -40 65 -129 78 -195 28 -30 -23 -34 -24 -46
-9 -16 19 -70 43 -97 43 -10 0 -35 -9 -57 -20z"/>
<path d="M3934 4639 c-37 -10 -91 -67 -100 -105 -4 -14 -4 -49 -2 -78 5 -63
36 -112 84 -132 43 -18 118 -18 153 1 30 15 81 70 81 86 0 15 -100 11 -116 -6
-31 -31 -104 -9 -104 31 0 11 22 14 115 14 l115 0 0 35 c0 116 -107 189 -226
154z m106 -89 c33 -33 24 -40 -45 -40 -71 0 -85 15 -43 44 31 22 64 20 88 -4z"/>
<path d="M4660 4628 c-61 -32 -83 -66 -88 -137 -8 -112 45 -173 158 -179 55
-3 70 0 99 20 60 41 76 71 76 146 0 81 -25 124 -89 153 -55 25 -103 24 -156
-3z m129 -94 c42 -53 10 -144 -49 -144 -36 0 -70 44 -70 90 0 75 75 109 119
54z"/>
<path d="M5642 4568 c81 -192 98 -233 98 -245 0 -7 -12 -38 -26 -70 -50 -112
-51 -103 9 -103 l53 0 97 229 c53 127 100 237 103 245 5 13 -3 16 -47 16 l-54
0 -24 -67 c-12 -38 -30 -84 -38 -103 l-15 -35 -37 100 -36 100 -57 3 -58 3 32
-73z"/>
<path d="M11243 4063 c-86 -4 -93 -5 -98 -26 -3 -12 -30 -168 -60 -347 -31
-179 -58 -333 -61 -342 -5 -16 -30 -18 -297 -20 l-292 -3 -3 -22 -3 -23 299 0
300 0 20 108 c11 59 41 229 68 377 26 149 51 274 56 280 5 5 221 12 536 15
l527 6 -450 0 c-247 0 -492 -2 -542 -3z"/>
<path d="M11869 4043 c0 -5 -1 -168 -2 -363 l0 -355 104 -3 105 -3 73 343 c40
189 75 353 78 366 l5 22 -181 0 c-100 0 -181 -3 -182 -7z"/>
<path d="M4408 3879 c-25 -14 -24 -75 1 -89 29 -15 56 -12 74 8 46 50 -16 116
-75 81z"/>
<path d="M3693 3865 c-35 -15 -63 -60 -63 -100 0 -18 -5 -25 -20 -25 -17 0
-20 -7 -20 -40 0 -33 3 -40 20 -40 19 0 20 -7 20 -125 l0 -125 50 0 50 0 0
125 0 125 25 0 c23 0 25 4 25 40 0 36 -2 40 -26 40 -21 0 -25 4 -22 23 2 14
11 23 26 25 19 3 22 9 22 48 0 41 -2 44 -27 44 -16 -1 -42 -7 -60 -15z"/>
<path d="M4220 3630 l0 -220 50 0 50 0 0 220 0 220 -50 0 -50 0 0 -220z"/>
<path d="M2360 3620 l0 -210 50 0 50 0 0 75 0 75 43 0 c105 0 167 45 174 127
3 36 -1 56 -17 81 -30 49 -72 62 -195 62 l-105 0 0 -210z m202 113 c43 -39 6
-93 -64 -93 l-38 0 0 55 0 55 42 0 c24 0 49 -7 60 -17z"/>
<path d="M3390 3780 c0 -33 -3 -40 -20 -40 -17 0 -20 -7 -20 -40 0 -33 3 -40
20 -40 18 0 20 -7 20 -85 0 -129 29 -165 131 -165 l39 0 0 45 c0 45 0 45 -35
45 l-35 0 0 80 0 80 35 0 c34 0 35 1 35 40 0 39 -1 40 -35 40 -34 0 -35 1 -35
40 l0 40 -50 0 -50 0 0 -40z"/>
<path d="M13131 3774 c0 -11 3 -14 6 -6 3 7 2 16 -1 19 -3 4 -6 -2 -5 -13z"/>
<path d="M16368 3724 c0 -22 -1 -47 0 -56 1 -9 -7 -77 -18 -150 -42 -282 -130
-986 -130 -1041 0 -31 9 -137 20 -235 10 -97 24 -224 30 -282 14 -131 49 -365
101 -665 49 -288 46 -275 67 -276 11 0 13 -2 4 -6 -7 -3 -50 -42 -95 -87 -80
-80 -85 -83 -190 -119 -125 -44 -207 -90 -207 -117 0 -43 16 -45 354 -44 l320
2 19 23 c22 26 22 -10 -2 474 -6 110 -18 419 -26 687 -18 536 -21 488 48 698
38 117 40 133 42 249 l1 123 -73 -78 -72 -79 -1 471 0 471 -82 32 c-46 18 -89
35 -95 38 -9 4 -13 -7 -15 -33z m199 -2371 c-3 -10 -5 -4 -5 12 0 17 2 24 5
18 2 -7 2 -21 0 -30z m41 -330 c-10 -2 -26 -2 -35 0 -10 3 -2 5 17 5 19 0 27
-2 18 -5z"/>
<path d="M2810 3728 c-62 -32 -90 -77 -90 -145 0 -110 52 -165 160 -171 55 -3
70 0 99 20 60 41 76 71 76 146 0 81 -25 124 -89 153 -55 25 -102 24 -156 -3z
m129 -94 c42 -53 10 -144 -49 -144 -36 0 -70 44 -70 90 0 75 75 109 119 54z"/>
<path d="M3290 3743 c-8 -3 -27 -15 -42 -25 -28 -19 -28 -19 -28 1 0 18 -6 21
-50 21 l-50 0 0 -165 0 -165 50 0 50 0 0 99 c0 92 2 101 22 115 12 9 35 16 50
16 27 0 28 2 28 55 0 55 -2 58 -30 48z"/>
<path d="M3926 3740 c-76 -24 -126 -118 -107 -202 20 -90 79 -131 178 -126 75
5 108 25 141 89 40 77 14 180 -57 222 -36 21 -115 30 -155 17z m107 -97 c59
-66 3 -174 -74 -143 -73 31 -52 160 26 160 18 0 39 -8 48 -17z"/>
<path d="M4663 3739 c-63 -18 -113 -93 -113 -169 0 -40 42 -113 79 -137 44
-29 131 -31 181 -4 96 51 115 187 37 269 -46 47 -111 62 -184 41z m109 -96
c39 -45 27 -123 -21 -143 -77 -32 -133 76 -74 143 9 9 30 17 48 17 18 0 39 -8
47 -17z"/>
<path d="M4390 3575 l0 -165 50 0 50 0 0 165 0 165 -50 0 -50 0 0 -165z"/>
<path d="M13040 3711 c-23 -6 -23 -7 -5 -14 40 -16 170 -19 230 -7 51 11 56
14 35 21 -32 9 -227 9 -260 0z"/>
<path d="M12934 3656 c-14 -11 -19 -26 -19 -59 0 -54 22 -87 87 -134 l45 -33
-5 26 c-3 15 -8 21 -12 15 -9 -15 -56 22 -75 59 -19 37 -19 94 0 110 31 26 13
40 -21 16z"/>
<path d="M13051 3404 c0 -11 3 -14 6 -6 3 7 2 16 -1 19 -3 4 -6 -2 -5 -13z"/>
<path d="M13060 3375 c0 -5 5 -17 10 -25 5 -8 10 -10 10 -5 0 6 -5 17 -10 25
-5 8 -10 11 -10 5z"/>
<path d="M12180 3320 c-13 -9 -13 -10 0 -10 13 0 13 -1 0 -10 -13 -9 -13 -10
0 -10 13 0 13 -1 0 -10 -13 -9 -13 -10 0 -10 13 0 13 -1 0 -10 -13 -9 -13 -10
0 -10 13 0 13 -1 0 -10 -13 -9 -13 -10 0 -11 10 0 8 -3 -5 -9 -11 -5 -476 -9
-1032 -9 -710 -1 -1013 -4 -1013 -12 0 -15 21 -53 34 -61 6 -4 185 -8 399 -8
348 0 387 -2 387 -16 0 -9 -109 -559 -241 -1223 -133 -663 -242 -1215 -243
-1226 -1 -11 6 -21 16 -23 12 -2 18 7 23 40 10 63 484 2409 491 2430 5 16 18
18 126 18 l120 0 -7 -37 c-3 -21 -112 -531 -242 -1133 -130 -602 -236 -1104
-237 -1115 0 -11 6 -21 15 -23 12 -2 18 8 23 40 6 36 437 2020 479 2203 l14
60 424 6 c233 3 587 7 785 8 l361 1 22 -102 c47 -230 278 -1342 363 -1755 83
-399 94 -443 111 -443 12 0 17 5 14 14 -3 7 -46 213 -96 457 -194 952 -371
1822 -371 1825 0 2 63 4 139 4 124 0 140 -2 145 -17 3 -10 26 -142 50 -293 25
-151 113 -682 195 -1180 82 -498 153 -926 157 -953 4 -34 11 -47 23 -47 14 0
10 37 -36 313 -28 171 -83 512 -123 757 -95 593 -219 1358 -226 1393 l-6 27
297 0 c296 0 297 0 316 23 10 12 18 28 19 34 0 16 28 22 115 25 67 3 70 4 92
37 13 19 23 43 23 53 0 18 -12 19 -432 14 -516 -6 -410 -6 -983 -1 -303 4
-475 2 -485 -5z"/>
<path d="M16927 890 c-20 -83 -35 -156 -33 -163 3 -6 7 -24 10 -39 3 -14 18
-40 32 -57 26 -31 27 -31 124 -31 97 0 99 0 123 30 35 41 40 76 23 161 -9 41
-20 106 -26 144 -17 113 -8 105 -119 105 l-98 0 -36 -150z"/>
</g>
</svg>
